<svg width="507" height="512" viewBox="0 0 507 512" fill="none" xmlns="http://www.w3.org/2000/svg">
<g clip-path="url(#clip0)">
<path d="M137.892 138.672C145.721 146.464 158.384 146.434 166.176 138.605L236 68.443L236 492C236 503.046 244.954 512 256 512C267.046 512 276 503.046 276 492L276 68.442L345.824 138.606C353.616 146.435 366.279 146.465 374.108 138.673C381.938 130.88 381.967 118.217 374.176 110.388L270.176 5.884C270.17 5.877 270.163 5.872 270.157 5.866C262.365 -1.943 249.661 -1.96801 241.843 5.86499C241.837 5.87199 241.83 5.877 241.824 5.883L137.824 110.387C130.034 118.215 130.061 130.879 137.892 138.672Z" fill="#6BB645"/>
</g>
<defs>
<clipPath id="clip0">
<rect x="512" y="512" width="512" height="512" transform="rotate(-180 512 512)" fill="white"/>
</clipPath>
</defs>
</svg>
