<?xml version="1.0" encoding="iso-8859-1"?>
<!-- Generator: Adobe Illustrator 19.0.0, SVG Export Plug-In . SVG Version: 6.00 Build 0)  -->
<svg version="1.1" id="Capa_1" xmlns="http://www.w3.org/2000/svg" xmlns:xlink="http://www.w3.org/1999/xlink" x="0px" y="0px"
	 viewBox="0 0 512 512" style="enable-background:new 0 0 512 512;" xml:space="preserve">
<g>
	<g>
		<path fill="#273766" d="M442.409,52V0h-89.661v52H159.251V0h-89.66v52H0v460h512V52H442.409z M382.748,30h29.661v62h-29.661V30z M99.591,30h29.66
			v62h-29.66V30z M482,482H30V184h452V482z M482,154H30V82h39.591v40h89.66V82h193.497v40h89.661V82H482V154z"/>
	</g>
</g>
<g>
	<g>
		<rect fill="#273766" x="231.22" y="223" width="49.564" height="30"/>
	</g>
</g>
<g>
	<g>
		<rect fill="#273766" x="315.66" y="223" width="49.564" height="30"/>
	</g>
</g>
<g>
	<g>
		<rect fill="#273766" x="400.1" y="223" width="49.564" height="30"/>
	</g>
</g>
<g>
	<g>
		<rect fill="#273766" x="62.33" y="288" width="49.564" height="30"/>
	</g>
</g>
<g>
	<g>
		<rect fill="#273766" x="146.78" y="288" width="49.564" height="30"/>
	</g>
</g>
<g>
	<g>
		<rect fill="#273766" x="231.22" y="288" width="49.564" height="30"/>
	</g>
</g>
<g>
	<g>
		<rect fill="#273766" x="315.66" y="288" width="49.564" height="30"/>
	</g>
</g>
<g>
	<g>
		<rect fill="#273766" x="400.1" y="288" width="49.564" height="30"/>
	</g>
</g>
<g>
	<g>
		<rect fill="#273766" x="62.33" y="353" width="49.564" height="30"/>
	</g>
</g>
<g>
	<g>
		<rect fill="#273766" x="146.78" y="353" width="49.564" height="30"/>
	</g>
</g>
<g>
	<g>
		<rect fill="#273766" x="231.22" y="353" width="49.564" height="30"/>
	</g>
</g>
<g>
	<g>
		<rect fill="#273766" x="315.66" y="353" width="49.564" height="30"/>
	</g>
</g>
<g>
	<g>
		<rect fill="#273766" x="400.1" y="353" width="49.564" height="30"/>
	</g>
</g>
<g>
	<g>
		<rect fill="#273766" x="62.33" y="418" width="49.564" height="30"/>
	</g>
</g>
<g>
	<g>
		<rect fill="#273766" x="146.78" y="418" width="49.564" height="30"/>
	</g>
</g>
<g>
	<g>
		<rect fill="#273766" x="231.22" y="418" width="49.564" height="30"/>
	</g>
</g>
<g>
	<g>
		<rect fill="#273766" x="315.66" y="418" width="49.564" height="30"/>
	</g>
</g>
<g>
</g>
<g>
</g>
<g>
</g>
<g>
</g>
<g>
</g>
<g>
</g>
<g>
</g>
<g>
</g>
<g>
</g>
<g>
</g>
<g>
</g>
<g>
</g>
<g>
</g>
<g>
</g>
<g>
</g>
</svg>
