<?xml version="1.0" encoding="UTF-8"?>
<svg width="25px" height="25px" viewBox="0 0 25 25" version="1.1" xmlns="http://www.w3.org/2000/svg" xmlns:xlink="http://www.w3.org/1999/xlink">
    <!-- Generator: Sketch 64 (93537) - https://sketch.com -->
    <title>Icon / Close</title>
    <desc>Created with Sketch.</desc>
    <defs>
        <path d="M12.5,0 C5.60761719,0 0,5.60761719 0,12.5 C0,19.3923828 5.60761719,25 12.5,25 C19.3923828,25 25,19.3923828 25,12.5 C25,5.60761719 19.3923828,0 12.5,0 Z M12.5,23.9583496 C6.18183594,23.9583496 1.04165039,18.8181641 1.04165039,12.5 C1.04165039,6.18183594 6.18183594,1.04165039 12.5,1.04165039 C18.8181641,1.04165039 23.9583496,6.18183594 23.9583496,12.5 C23.9583496,18.8181641 18.8181641,23.9583496 12.5,23.9583496 Z M17.8033009,7.19669914 C17.998563,7.39196129 17.998563,7.70854378 17.8033009,7.90380592 L13.2078139,12.4992929 L17.8033009,17.0961941 C17.998563,17.2914562 17.998563,17.6080387 17.8033009,17.8033009 C17.6080387,17.998563 17.2914562,17.998563 17.0961941,17.8033009 L12.5007071,13.2063997 L7.90380592,17.8033009 C7.70854378,17.998563 7.39196129,17.998563 7.19669914,17.8033009 C7.001437,17.6080387 7.001437,17.2914562 7.19669914,17.0961941 L11.7928932,12.5 L7.19669914,7.90380592 C7.001437,7.70854378 7.001437,7.39196129 7.19669914,7.19669914 C7.39196129,7.001437 7.70854378,7.001437 7.90380592,7.19669914 L12.5,11.7928932 L17.0961941,7.19669914 C17.2914562,7.001437 17.6080387,7.001437 17.8033009,7.19669914 Z" id="path-1"></path>
    </defs>
    <g id="Icon-/-Close" stroke="none" stroke-width="1" fill="none" fill-rule="evenodd">
        <mask id="mask-2" fill="white">
            <use xlink:href="#path-1"></use>
        </mask>
        <g id="Shape" fill-rule="nonzero"></g>
        <g id="Colors-/-Dark-Blue" mask="url(#mask-2)" fill="#0D1E45" fill-rule="nonzero">
            <rect id="Black" x="0" y="0" width="25" height="25"></rect>
        </g>
    </g>
</svg>