<svg width="182" height="182" viewBox="0 0 182 182" fill="none" xmlns="http://www.w3.org/2000/svg">
<path d="M169 117C165.41 117 162.5 119.91 162.5 123.5V162.5C162.5 166.09 159.589 169 156 169H26.0001C22.4101 169 19.5 166.09 19.5 162.5V123.5C19.5 119.91 16.5898 117 12.9999 117C9.40989 117 6.49974 119.91 6.49974 123.5V162.5C6.49974 173.27 15.2302 182 25.9997 182H156C166.769 182 175.5 173.27 175.5 162.5V123.5C175.5 119.91 172.59 117 169 117Z" fill="#248EC2"/>
<path d="M127.948 112.404C125.429 109.972 121.436 109.972 118.918 112.404L97.4999 133.809V6.50012C97.4999 2.91014 94.5898 0 90.9998 0C87.4098 0 84.4997 2.91014 84.4997 6.50012V133.809L63.095 112.404C60.5128 109.911 56.398 109.982 53.9041 112.564C51.4712 115.083 51.4712 119.076 53.9041 121.595L86.404 154.095C88.9394 156.637 93.0549 156.642 95.5964 154.107C95.6002 154.103 95.604 154.099 95.6082 154.095L128.108 121.595C130.602 119.013 130.531 114.898 127.948 112.404Z" fill="#248EC2"/>
</svg>
