<svg width="233" height="233" viewBox="0 0 233 233" fill="none" xmlns="http://www.w3.org/2000/svg">
<g clip-path="url(#clip0)">
<path d="M215.05 146.369C211.845 146.369 209.247 148.967 209.247 152.172V203.695C209.236 213.307 201.449 221.095 191.838 221.104H29.0145C19.4035 221.095 11.6171 213.307 11.6058 203.695V52.4776C11.6171 42.8688 19.4035 35.0802 29.0145 35.0689H80.538C83.7432 35.0689 86.3409 32.4712 86.3409 29.266C86.3409 26.063 83.7432 23.4631 80.538 23.4631H29.0145C12.9976 23.4812 0.0181341 36.4607 0 52.4776V203.698C0.0181341 219.715 12.9976 232.694 29.0145 232.712H191.838C207.855 232.694 220.835 219.715 220.853 203.698V152.172C220.853 148.967 218.255 146.369 215.05 146.369V146.369Z" fill="#248EC2"/>
<path d="M218.554 8.53192C208.356 -1.66624 191.822 -1.66624 181.624 8.53192L78.0967 112.059C77.3872 112.769 76.8749 113.648 76.6074 114.614L62.9933 163.764C62.4334 165.779 63.0023 167.937 64.4803 169.418C65.9605 170.895 68.1184 171.464 70.1336 170.907L119.284 157.29C120.249 157.023 121.129 156.511 121.838 155.801L225.364 52.2713C235.546 42.0664 235.546 25.5462 225.364 15.3413L218.554 8.53192ZM90.7407 115.831L175.47 31.0998L202.796 58.4256L118.064 143.157L90.7407 115.831ZM85.2823 126.784L107.114 148.618L76.9157 156.984L85.2823 126.784ZM217.158 44.0657L211.004 50.2199L183.676 22.8918L189.832 16.7376C195.497 11.073 204.682 11.073 210.346 16.7376L217.158 23.5469C222.814 29.2184 222.814 38.3965 217.158 44.0657V44.0657Z" fill="#248EC2"/>
</g>
<defs>
<clipPath id="clip0">
<rect width="233" height="233" fill="white"/>
</clipPath>
</defs>
</svg>
